<svg width="800" height="800" viewBox="0 0 800 800" fill="none" xmlns="http://www.w3.org/2000/svg">
<rect x="0.5" y="0.5" width="49" height="49" stroke="#595B5D"/>
<rect x="50.5" y="0.5" width="49" height="49" stroke="#595B5D"/>
<rect x="100.5" y="0.5" width="49" height="49" stroke="#595B5D"/>
<rect x="150.5" y="0.5" width="49" height="49" stroke="#595B5D"/>
<rect x="200.5" y="0.5" width="49" height="49" stroke="#595B5D"/>
<rect x="250.5" y="0.5" width="49" height="49" stroke="#595B5D"/>
<rect x="300.5" y="0.5" width="49" height="49" stroke="#595B5D"/>
<rect x="350.5" y="0.5" width="49" height="49" stroke="#595B5D"/>
<rect x="400.5" y="0.5" width="49" height="49" stroke="#595B5D"/>
<rect x="450.5" y="0.5" width="49" height="49" stroke="#595B5D"/>
<rect x="500.5" y="0.5" width="49" height="49" stroke="#595B5D"/>
<rect x="550.5" y="0.5" width="49" height="49" stroke="#595B5D"/>
<rect x="600.5" y="0.5" width="49" height="49" stroke="#595B5D"/>
<rect x="650.5" y="0.5" width="49" height="49" stroke="#595B5D"/>
<rect x="700.5" y="0.5" width="49" height="49" stroke="#595B5D"/>
<rect x="750.5" y="0.5" width="49" height="49" stroke="#595B5D"/>
<rect x="0.5" y="50.5" width="49" height="49" stroke="#595B5D"/>
<rect x="50.5" y="50.5" width="49" height="49" stroke="#595B5D"/>
<rect x="100.5" y="50.5" width="49" height="49" stroke="#595B5D"/>
<rect x="150.5" y="50.5" width="49" height="49" stroke="#595B5D"/>
<rect x="200.5" y="50.5" width="49" height="49" stroke="#595B5D"/>
<rect x="250.5" y="50.5" width="49" height="49" stroke="#595B5D"/>
<rect x="300.5" y="50.5" width="49" height="49" stroke="#595B5D"/>
<rect x="350.5" y="50.5" width="49" height="49" stroke="#595B5D"/>
<rect x="400.5" y="50.5" width="49" height="49" stroke="#595B5D"/>
<rect x="450.5" y="50.5" width="49" height="49" stroke="#595B5D"/>
<rect x="500.5" y="50.5" width="49" height="49" stroke="#595B5D"/>
<rect x="550.5" y="50.5" width="49" height="49" stroke="#595B5D"/>
<rect x="600.5" y="50.5" width="49" height="49" stroke="#595B5D"/>
<rect x="650.5" y="50.5" width="49" height="49" stroke="#595B5D"/>
<rect x="700.5" y="50.5" width="49" height="49" stroke="#595B5D"/>
<rect x="750.5" y="50.5" width="49" height="49" stroke="#595B5D"/>
<rect x="0.5" y="700.5" width="49" height="49" stroke="#595B5D"/>
<rect x="50.5" y="700.5" width="49" height="49" stroke="#595B5D"/>
<rect x="100.5" y="700.5" width="49" height="49" stroke="#595B5D"/>
<rect x="150.5" y="700.5" width="49" height="49" stroke="#595B5D"/>
<rect x="200.5" y="700.5" width="49" height="49" stroke="#595B5D"/>
<rect x="250.5" y="700.5" width="49" height="49" stroke="#595B5D"/>
<rect x="300.5" y="700.5" width="49" height="49" stroke="#595B5D"/>
<rect x="350.5" y="700.5" width="49" height="49" stroke="#595B5D"/>
<rect x="400.5" y="700.5" width="49" height="49" stroke="#595B5D"/>
<rect x="450.5" y="700.5" width="49" height="49" stroke="#595B5D"/>
<rect x="500.5" y="700.5" width="49" height="49" stroke="#595B5D"/>
<rect x="550.5" y="700.5" width="49" height="49" stroke="#595B5D"/>
<rect x="600.5" y="700.5" width="49" height="49" stroke="#595B5D"/>
<rect x="650.5" y="700.5" width="49" height="49" stroke="#595B5D"/>
<rect x="700.5" y="700.5" width="49" height="49" stroke="#595B5D"/>
<rect x="750.5" y="700.5" width="49" height="49" stroke="#595B5D"/>
<rect x="0.5" y="750.5" width="49" height="49" stroke="#595B5D"/>
<rect x="50.5" y="750.5" width="49" height="49" stroke="#595B5D"/>
<rect x="100.5" y="750.5" width="49" height="49" stroke="#595B5D"/>
<rect x="150.5" y="750.5" width="49" height="49" stroke="#595B5D"/>
<rect x="200.5" y="750.5" width="49" height="49" stroke="#595B5D"/>
<rect x="250.5" y="750.5" width="49" height="49" stroke="#595B5D"/>
<rect x="300.5" y="750.5" width="49" height="49" stroke="#595B5D"/>
<rect x="350.5" y="750.5" width="49" height="49" stroke="#595B5D"/>
<rect x="400.5" y="750.5" width="49" height="49" stroke="#595B5D"/>
<rect x="450.5" y="750.5" width="49" height="49" stroke="#595B5D"/>
<rect x="500.5" y="750.5" width="49" height="49" stroke="#595B5D"/>
<rect x="550.5" y="750.5" width="49" height="49" stroke="#595B5D"/>
<rect x="600.5" y="750.5" width="49" height="49" stroke="#595B5D"/>
<rect x="650.5" y="750.5" width="49" height="49" stroke="#595B5D"/>
<rect x="700.5" y="750.5" width="49" height="49" stroke="#595B5D"/>
<rect x="750.5" y="750.5" width="49" height="49" stroke="#595B5D"/>
<rect x="0.5" y="100.5" width="49" height="49" stroke="#595B5D"/>
<rect x="50.5" y="100.5" width="49" height="49" stroke="#595B5D"/>
<rect x="100.5" y="100.5" width="49" height="49" stroke="#595B5D"/>
<rect x="150.5" y="100.5" width="49" height="49" stroke="#595B5D"/>
<rect x="200.5" y="100.5" width="49" height="49" stroke="#595B5D"/>
<rect x="250.5" y="100.5" width="49" height="49" stroke="#595B5D"/>
<rect x="300.5" y="100.5" width="49" height="49" stroke="#595B5D"/>
<rect x="350.5" y="100.5" width="49" height="49" stroke="#595B5D"/>
<rect x="400.5" y="100.5" width="49" height="49" stroke="#595B5D"/>
<rect x="450.5" y="100.5" width="49" height="49" stroke="#595B5D"/>
<rect x="500.5" y="100.5" width="49" height="49" stroke="#595B5D"/>
<rect x="550.5" y="100.5" width="49" height="49" stroke="#595B5D"/>
<rect x="600.5" y="100.5" width="49" height="49" stroke="#595B5D"/>
<rect x="650.5" y="100.5" width="49" height="49" stroke="#595B5D"/>
<rect x="700.5" y="100.5" width="49" height="49" stroke="#595B5D"/>
<rect x="750.5" y="100.5" width="49" height="49" stroke="#595B5D"/>
<rect x="0.5" y="150.5" width="49" height="49" stroke="#595B5D"/>
<rect x="50.5" y="150.5" width="49" height="49" stroke="#595B5D"/>
<rect x="100.5" y="150.5" width="49" height="49" stroke="#595B5D"/>
<rect x="150.5" y="150.5" width="49" height="49" stroke="#595B5D"/>
<rect x="200.5" y="150.5" width="49" height="49" stroke="#595B5D"/>
<rect x="250.5" y="150.5" width="49" height="49" stroke="#595B5D"/>
<rect x="300.5" y="150.5" width="49" height="49" stroke="#595B5D"/>
<rect x="350.5" y="150.5" width="49" height="49" stroke="#595B5D"/>
<rect x="400.5" y="150.5" width="49" height="49" stroke="#595B5D"/>
<rect x="450.5" y="150.5" width="49" height="49" stroke="#595B5D"/>
<rect x="500.5" y="150.5" width="49" height="49" stroke="#595B5D"/>
<rect x="550.5" y="150.5" width="49" height="49" stroke="#595B5D"/>
<rect x="600.5" y="150.5" width="49" height="49" stroke="#595B5D"/>
<rect x="650.5" y="150.5" width="49" height="49" stroke="#595B5D"/>
<rect x="700.5" y="150.5" width="49" height="49" stroke="#595B5D"/>
<rect x="750.5" y="150.5" width="49" height="49" stroke="#595B5D"/>
<rect x="0.5" y="200.5" width="49" height="49" stroke="#595B5D"/>
<rect x="50.5" y="200.5" width="49" height="49" stroke="#595B5D"/>
<rect x="100.5" y="200.5" width="49" height="49" stroke="#595B5D"/>
<rect x="150.5" y="200.5" width="49" height="49" stroke="#595B5D"/>
<rect x="200.5" y="200.5" width="49" height="49" stroke="#595B5D"/>
<rect x="250.5" y="200.5" width="49" height="49" stroke="#595B5D"/>
<rect x="300.5" y="200.5" width="49" height="49" stroke="#595B5D"/>
<rect x="350.5" y="200.5" width="49" height="49" stroke="#595B5D"/>
<rect x="400.5" y="200.5" width="49" height="49" stroke="#595B5D"/>
<rect x="450.5" y="200.5" width="49" height="49" stroke="#595B5D"/>
<rect x="500.5" y="200.5" width="49" height="49" stroke="#595B5D"/>
<rect x="550.5" y="200.5" width="49" height="49" stroke="#595B5D"/>
<rect x="600.5" y="200.5" width="49" height="49" stroke="#595B5D"/>
<rect x="650.5" y="200.5" width="49" height="49" stroke="#595B5D"/>
<rect x="700.5" y="200.5" width="49" height="49" stroke="#595B5D"/>
<rect x="750.5" y="200.5" width="49" height="49" stroke="#595B5D"/>
<rect x="0.5" y="250.5" width="49" height="49" stroke="#595B5D"/>
<rect x="50.5" y="250.5" width="49" height="49" stroke="#595B5D"/>
<rect x="100.5" y="250.5" width="49" height="49" stroke="#595B5D"/>
<rect x="150.5" y="250.5" width="49" height="49" stroke="#595B5D"/>
<rect x="200.5" y="250.5" width="49" height="49" stroke="#595B5D"/>
<rect x="250.5" y="250.5" width="49" height="49" stroke="#595B5D"/>
<rect x="300.5" y="250.5" width="49" height="49" stroke="#595B5D"/>
<rect x="350.5" y="250.5" width="49" height="49" stroke="#595B5D"/>
<rect x="400.5" y="250.5" width="49" height="49" stroke="#595B5D"/>
<rect x="450.5" y="250.5" width="49" height="49" stroke="#595B5D"/>
<rect x="500.5" y="250.5" width="49" height="49" stroke="#595B5D"/>
<rect x="550.5" y="250.5" width="49" height="49" stroke="#595B5D"/>
<rect x="600.5" y="250.5" width="49" height="49" stroke="#595B5D"/>
<rect x="650.5" y="250.5" width="49" height="49" stroke="#595B5D"/>
<rect x="700.5" y="250.5" width="49" height="49" stroke="#595B5D"/>
<rect x="750.5" y="250.5" width="49" height="49" stroke="#595B5D"/>
<rect x="0.5" y="300.5" width="49" height="49" stroke="#595B5D"/>
<rect x="50.5" y="300.5" width="49" height="49" stroke="#595B5D"/>
<rect x="100.5" y="300.5" width="49" height="49" stroke="#595B5D"/>
<rect x="150.5" y="300.5" width="49" height="49" stroke="#595B5D"/>
<rect x="200.5" y="300.5" width="49" height="49" stroke="#595B5D"/>
<rect x="250.5" y="300.5" width="49" height="49" stroke="#595B5D"/>
<rect x="300.5" y="300.5" width="49" height="49" stroke="#595B5D"/>
<rect x="350.5" y="300.5" width="49" height="49" stroke="#595B5D"/>
<rect x="400.5" y="300.5" width="49" height="49" stroke="#595B5D"/>
<rect x="450.5" y="300.5" width="49" height="49" stroke="#595B5D"/>
<rect x="500.5" y="300.5" width="49" height="49" stroke="#595B5D"/>
<rect x="550.5" y="300.5" width="49" height="49" stroke="#595B5D"/>
<rect x="600.5" y="300.5" width="49" height="49" stroke="#595B5D"/>
<rect x="650.5" y="300.5" width="49" height="49" stroke="#595B5D"/>
<rect x="700.5" y="300.5" width="49" height="49" stroke="#595B5D"/>
<rect x="750.5" y="300.5" width="49" height="49" stroke="#595B5D"/>
<rect x="0.5" y="350.5" width="49" height="49" stroke="#595B5D"/>
<rect x="50.5" y="350.5" width="49" height="49" stroke="#595B5D"/>
<rect x="100.5" y="350.5" width="49" height="49" stroke="#595B5D"/>
<rect x="150.5" y="350.5" width="49" height="49" stroke="#595B5D"/>
<rect x="200.5" y="350.5" width="49" height="49" stroke="#595B5D"/>
<rect x="250.5" y="350.5" width="49" height="49" stroke="#595B5D"/>
<rect x="300.5" y="350.5" width="49" height="49" stroke="#595B5D"/>
<rect x="350.5" y="350.5" width="49" height="49" stroke="#595B5D"/>
<rect x="400.5" y="350.5" width="49" height="49" stroke="#595B5D"/>
<rect x="450.5" y="350.5" width="49" height="49" stroke="#595B5D"/>
<rect x="500.5" y="350.5" width="49" height="49" stroke="#595B5D"/>
<rect x="550.5" y="350.5" width="49" height="49" stroke="#595B5D"/>
<rect x="600.5" y="350.5" width="49" height="49" stroke="#595B5D"/>
<rect x="650.5" y="350.5" width="49" height="49" stroke="#595B5D"/>
<rect x="700.5" y="350.5" width="49" height="49" stroke="#595B5D"/>
<rect x="750.5" y="350.5" width="49" height="49" stroke="#595B5D"/>
<rect x="0.5" y="400.5" width="49" height="49" stroke="#595B5D"/>
<rect x="50.5" y="400.5" width="49" height="49" stroke="#595B5D"/>
<rect x="100.5" y="400.5" width="49" height="49" stroke="#595B5D"/>
<rect x="150.5" y="400.5" width="49" height="49" stroke="#595B5D"/>
<rect x="200.5" y="400.5" width="49" height="49" stroke="#595B5D"/>
<rect x="250.5" y="400.5" width="49" height="49" stroke="#595B5D"/>
<rect x="300.5" y="400.5" width="49" height="49" stroke="#595B5D"/>
<rect x="350.5" y="400.5" width="49" height="49" stroke="#595B5D"/>
<rect x="400.5" y="400.5" width="49" height="49" stroke="#595B5D"/>
<rect x="450.5" y="400.5" width="49" height="49" stroke="#595B5D"/>
<rect x="500.5" y="400.5" width="49" height="49" stroke="#595B5D"/>
<rect x="550.5" y="400.5" width="49" height="49" stroke="#595B5D"/>
<rect x="600.5" y="400.5" width="49" height="49" stroke="#595B5D"/>
<rect x="650.5" y="400.5" width="49" height="49" stroke="#595B5D"/>
<rect x="700.5" y="400.5" width="49" height="49" stroke="#595B5D"/>
<rect x="750.5" y="400.5" width="49" height="49" stroke="#595B5D"/>
<rect x="0.5" y="450.5" width="49" height="49" stroke="#595B5D"/>
<rect x="50.5" y="450.5" width="49" height="49" stroke="#595B5D"/>
<rect x="100.5" y="450.5" width="49" height="49" stroke="#595B5D"/>
<rect x="150.5" y="450.5" width="49" height="49" stroke="#595B5D"/>
<rect x="200.5" y="450.5" width="49" height="49" stroke="#595B5D"/>
<rect x="250.5" y="450.5" width="49" height="49" stroke="#595B5D"/>
<rect x="300.5" y="450.5" width="49" height="49" stroke="#595B5D"/>
<rect x="350.5" y="450.5" width="49" height="49" stroke="#595B5D"/>
<rect x="400.5" y="450.5" width="49" height="49" stroke="#595B5D"/>
<rect x="450.5" y="450.5" width="49" height="49" stroke="#595B5D"/>
<rect x="500.5" y="450.5" width="49" height="49" stroke="#595B5D"/>
<rect x="550.5" y="450.5" width="49" height="49" stroke="#595B5D"/>
<rect x="600.5" y="450.5" width="49" height="49" stroke="#595B5D"/>
<rect x="650.5" y="450.5" width="49" height="49" stroke="#595B5D"/>
<rect x="700.5" y="450.5" width="49" height="49" stroke="#595B5D"/>
<rect x="750.5" y="450.5" width="49" height="49" stroke="#595B5D"/>
<rect x="0.5" y="500.5" width="49" height="49" stroke="#595B5D"/>
<rect x="50.5" y="500.5" width="49" height="49" stroke="#595B5D"/>
<rect x="100.5" y="500.5" width="49" height="49" stroke="#595B5D"/>
<rect x="150.5" y="500.5" width="49" height="49" stroke="#595B5D"/>
<rect x="200.5" y="500.5" width="49" height="49" stroke="#595B5D"/>
<rect x="250.5" y="500.5" width="49" height="49" stroke="#595B5D"/>
<rect x="300.5" y="500.5" width="49" height="49" stroke="#595B5D"/>
<rect x="350.5" y="500.5" width="49" height="49" stroke="#595B5D"/>
<rect x="400.5" y="500.5" width="49" height="49" stroke="#595B5D"/>
<rect x="450.5" y="500.5" width="49" height="49" stroke="#595B5D"/>
<rect x="500.5" y="500.5" width="49" height="49" stroke="#595B5D"/>
<rect x="550.5" y="500.5" width="49" height="49" stroke="#595B5D"/>
<rect x="600.5" y="500.5" width="49" height="49" stroke="#595B5D"/>
<rect x="650.5" y="500.5" width="49" height="49" stroke="#595B5D"/>
<rect x="700.5" y="500.5" width="49" height="49" stroke="#595B5D"/>
<rect x="750.5" y="500.5" width="49" height="49" stroke="#595B5D"/>
<rect x="0.5" y="550.5" width="49" height="49" stroke="#595B5D"/>
<rect x="50.5" y="550.5" width="49" height="49" stroke="#595B5D"/>
<rect x="100.5" y="550.5" width="49" height="49" stroke="#595B5D"/>
<rect x="150.5" y="550.5" width="49" height="49" stroke="#595B5D"/>
<rect x="200.5" y="550.5" width="49" height="49" stroke="#595B5D"/>
<rect x="250.5" y="550.5" width="49" height="49" stroke="#595B5D"/>
<rect x="300.5" y="550.5" width="49" height="49" stroke="#595B5D"/>
<rect x="350.5" y="550.5" width="49" height="49" stroke="#595B5D"/>
<rect x="400.5" y="550.5" width="49" height="49" stroke="#595B5D"/>
<rect x="450.5" y="550.5" width="49" height="49" stroke="#595B5D"/>
<rect x="500.5" y="550.5" width="49" height="49" stroke="#595B5D"/>
<rect x="550.5" y="550.5" width="49" height="49" stroke="#595B5D"/>
<rect x="600.5" y="550.5" width="49" height="49" stroke="#595B5D"/>
<rect x="650.5" y="550.5" width="49" height="49" stroke="#595B5D"/>
<rect x="700.5" y="550.5" width="49" height="49" stroke="#595B5D"/>
<rect x="750.5" y="550.5" width="49" height="49" stroke="#595B5D"/>
<rect x="0.5" y="600.5" width="49" height="49" stroke="#595B5D"/>
<rect x="50.5" y="600.5" width="49" height="49" stroke="#595B5D"/>
<rect x="100.5" y="600.5" width="49" height="49" stroke="#595B5D"/>
<rect x="150.5" y="600.5" width="49" height="49" stroke="#595B5D"/>
<rect x="200.5" y="600.5" width="49" height="49" stroke="#595B5D"/>
<rect x="250.5" y="600.5" width="49" height="49" stroke="#595B5D"/>
<rect x="300.5" y="600.5" width="49" height="49" stroke="#595B5D"/>
<rect x="350.5" y="600.5" width="49" height="49" stroke="#595B5D"/>
<rect x="400.5" y="600.5" width="49" height="49" stroke="#595B5D"/>
<rect x="450.5" y="600.5" width="49" height="49" stroke="#595B5D"/>
<rect x="500.5" y="600.5" width="49" height="49" stroke="#595B5D"/>
<rect x="550.5" y="600.5" width="49" height="49" stroke="#595B5D"/>
<rect x="600.5" y="600.5" width="49" height="49" stroke="#595B5D"/>
<rect x="650.5" y="600.5" width="49" height="49" stroke="#595B5D"/>
<rect x="700.5" y="600.5" width="49" height="49" stroke="#595B5D"/>
<rect x="750.5" y="600.5" width="49" height="49" stroke="#595B5D"/>
<rect x="0.5" y="650.5" width="49" height="49" stroke="#595B5D"/>
<rect x="50.5" y="650.5" width="49" height="49" stroke="#595B5D"/>
<rect x="100.5" y="650.5" width="49" height="49" stroke="#595B5D"/>
<rect x="150.5" y="650.5" width="49" height="49" stroke="#595B5D"/>
<rect x="200.5" y="650.5" width="49" height="49" stroke="#595B5D"/>
<rect x="250.5" y="650.5" width="49" height="49" stroke="#595B5D"/>
<rect x="300.5" y="650.5" width="49" height="49" stroke="#595B5D"/>
<rect x="350.5" y="650.5" width="49" height="49" stroke="#595B5D"/>
<rect x="400.5" y="650.5" width="49" height="49" stroke="#595B5D"/>
<rect x="450.5" y="650.5" width="49" height="49" stroke="#595B5D"/>
<rect x="500.5" y="650.5" width="49" height="49" stroke="#595B5D"/>
<rect x="550.5" y="650.5" width="49" height="49" stroke="#595B5D"/>
<rect x="600.5" y="650.5" width="49" height="49" stroke="#595B5D"/>
<rect x="650.5" y="650.5" width="49" height="49" stroke="#595B5D"/>
<rect x="700.5" y="650.5" width="49" height="49" stroke="#595B5D"/>
<rect x="750.5" y="650.5" width="49" height="49" stroke="#595B5D"/>
<rect x="2" y="2" width="796" height="796" stroke="#595B5D" stroke-width="4"/>
</svg>
