<svg width="900" height="800" viewBox="0 0 900 800" fill="none" xmlns="http://www.w3.org/2000/svg">
    <mask id="mask0" mask-type="alpha" maskUnits="userSpaceOnUse" x="275" y="370" width="100" height="10">
        <circle cx="280" cy="375" r="5" transform="rotate(-90 280 375)" fill="#C4C4C4"/>
        <circle cx="370" cy="375" r="5" transform="rotate(-90 370 375)" fill="#C4C4C4"/>
        <circle cx="298" cy="375" r="5" transform="rotate(-90 298 375)" fill="#C4C4C4"/>
        <circle cx="316" cy="375" r="5" transform="rotate(-90 316 375)" fill="#C4C4C4"/>
        <circle cx="334" cy="375" r="5" transform="rotate(-90 334 375)" fill="#C4C4C4"/>
        <circle cx="352" cy="375" r="5" transform="rotate(-90 352 375)" fill="#C4C4C4"/>
    </mask>
    <g mask="url(#mask0)">
        <rect x="275" y="380" width="10" height="100" transform="rotate(-90 275 380)" fill="url(#paint1_linear)">
            <animate attributeName="height"
                values="0; 0; 100; 100;"
                keyTimes="0; 0.1; 0.2; 1;"
                dur="10s"
            />
        </rect>
    </g>
    <mask id="mask1" mask-type="alpha" maskUnits="userSpaceOnUse" x="525" y="371" width="100" height="10">
        <circle cx="620" cy="376" r="5" transform="rotate(90 620 376)" fill="#C4C4C4"/>
        <circle cx="530" cy="376" r="5" transform="rotate(90 530 376)" fill="#C4C4C4"/>
        <circle cx="602" cy="376" r="5" transform="rotate(90 602 376)" fill="#C4C4C4"/>
        <circle cx="584" cy="376" r="5" transform="rotate(90 584 376)" fill="#C4C4C4"/>
        <circle cx="566" cy="376" r="5" transform="rotate(90 566 376)" fill="#C4C4C4"/>
        <circle cx="548" cy="376" r="5" transform="rotate(90 548 376)" fill="#C4C4C4"/>
    </mask>
    <g mask="url(#mask1)">
        <rect x="525" y="381" width="10" height="102" transform="rotate(-90 525 381)" fill="url(#paint2_linear)">
            <animate attributeName="height"
                values="0; 0; 102; 102;"
                keyTimes="0; 0.4; 0.5; 1;"
                dur="10s"
            />
        </rect>
    </g>
    <mask id="mask2" mask-type="alpha" maskUnits="userSpaceOnUse" x="523" y="393" width="148" height="135">
        <circle cx="648.965" cy="507.122" r="5" transform="rotate(132 648.965 507.122)" fill="#C4C4C4"/>
        <circle cx="530.061" cy="400.061" r="5" transform="rotate(132 530.061 400.061)" fill="#C4C4C4"/>
        <circle cx="619.239" cy="480.357" r="5" transform="rotate(132 619.239 480.357)" fill="#C4C4C4"/>
        <circle cx="589.513" cy="453.592" r="5" transform="rotate(132 589.513 453.592)" fill="#C4C4C4"/>
        <circle cx="574.65" cy="440.209" r="5" transform="rotate(132 574.65 440.209)" fill="#C4C4C4"/>
        <circle cx="544.924" cy="413.444" r="5" transform="rotate(132 544.924 413.444)" fill="#C4C4C4"/>
        <circle cx="634.102" cy="493.74" r="5" transform="rotate(132 634.102 493.74)" fill="#C4C4C4"/>
        <circle cx="604.376" cy="466.975" r="5" transform="rotate(132 604.376 466.975)" fill="#C4C4C4"/>
        <circle cx="663.827" cy="520.505" r="5" transform="rotate(132 663.827 520.505)" fill="#C4C4C4"/>
        <circle cx="559.787" cy="426.827" r="5" transform="rotate(132 559.787 426.827)" fill="#C4C4C4"/>
    </mask>
    <g mask="url(#mask2)">
        <rect x="523" y="400.432" width="10" height="190" transform="rotate(-48 523 400.432)" fill="url(#paint3_linear)">
            <animate attributeName="height"
                values="0; 0; 190; 190;"
                keyTimes="0; 0.5; 0.6; 1;"
                dur="10s"
            />
        </rect>
    </g>
    <mask id="mask3" mask-type="alpha" maskUnits="userSpaceOnUse" x="524" y="233" width="156" height="125">
        <circle cx="657.1" cy="252.331" r="5" transform="rotate(52 657.1 252.331)" fill="#C4C4C4"/>
        <circle cx="531.018" cy="350.837" r="5" transform="rotate(52 531.018 350.837)" fill="#C4C4C4"/>
        <circle cx="625.58" cy="276.958" r="5" transform="rotate(52 625.58 276.958)" fill="#C4C4C4"/>
        <circle cx="594.059" cy="301.584" r="5" transform="rotate(52 594.059 301.584)" fill="#C4C4C4"/>
        <circle cx="578.299" cy="313.898" r="5" transform="rotate(52 578.299 313.898)" fill="#C4C4C4"/>
        <circle cx="546.779" cy="338.524" r="5" transform="rotate(52 546.779 338.524)" fill="#C4C4C4"/>
        <circle cx="641.34" cy="264.645" r="5" transform="rotate(52 641.34 264.645)" fill="#C4C4C4"/>
        <circle cx="609.819" cy="289.271" r="5" transform="rotate(52 609.819 289.271)" fill="#C4C4C4"/>
        <circle cx="672.86" cy="240.018" r="5" transform="rotate(52 672.86 240.018)" fill="#C4C4C4"/>
        <circle cx="562.539" cy="326.211" r="5" transform="rotate(52 562.539 326.211)" fill="#C4C4C4"/>
    </mask>
    <g mask="url(#mask3)">
        <rect x="530.157" y="357.855" width="10" height="190" transform="rotate(-128 530.157 357.855)" fill="url(#paint4_linear)">
            <animate attributeName="height"
                values="0; 0; 190; 190;"
                keyTimes="0; 0.3; 0.4; 1;"
                dur="10s"
            />
        </rect>
    </g>
    <g filter="url(#filter0_dddd)">
        <path d="M35.6951 446.224C30.9769 443.54 30.9769 436.739 35.6951 434.055L134.039 378.109C136.185 376.888 138.815 376.888 140.961 378.109L239.305 434.055C244.023 436.739 244.023 443.54 239.305 446.224L140.961 502.171C138.815 503.391 136.185 503.391 134.039 502.171L35.6951 446.224Z" fill="#303234">
            <animateTransform attributeName="transform"
                type="translate"
                values="0 -60; 0 0;"
                dur="1s"
            />
        </path>
    </g>
    <g filter="url(#filter1_dddd)">
        <path d="M35.6951 381.368C30.9769 378.684 30.9769 371.884 35.6951 369.199L134.039 313.253C136.185 312.032 138.815 312.032 140.961 313.253L239.305 369.199C244.023 371.883 244.023 378.684 239.305 381.368L140.961 437.315C138.815 438.535 136.185 438.535 134.039 437.315L35.6951 381.368Z" fill="#303234"/>
    </g>
    <g filter="url(#filter2_dddd)">
        <path d="M35.6951 316.512C30.9769 313.828 30.9769 307.028 35.6951 304.343L134.039 248.397C136.185 247.176 138.815 247.176 140.961 248.397L239.305 304.343C244.023 307.028 244.023 313.828 239.305 316.512L140.961 372.459C138.815 373.679 136.185 373.679 134.039 372.459L35.6951 316.512Z" fill="#303234">
            <animateTransform attributeName="transform"
                type="translate"
                values="0 60; 0 0;"
                dur="1s"
            />
        </path>
    </g>
    <g filter="url(#filter3_dddd)">
        <path d="M659.695 577.224C654.977 574.54 654.977 567.739 659.695 565.055L758.039 509.109C760.185 507.888 762.815 507.888 764.961 509.109L863.305 565.055C868.023 567.739 868.023 574.54 863.305 577.224L764.961 633.171C762.815 634.391 760.185 634.391 758.039 633.171L659.695 577.224Z" fill="#303234"/>
        <animate attributeName="opacity"
            values="0; 0; 1; 1;"
            keyTimes="0; 0.6; 0.7; 1"
            dur="10s"
        />
    </g>
    <g filter="url(#filter4_dddd)">
        <path d="M659.695 382.368C654.977 379.684 654.977 372.884 659.695 370.199L758.039 314.253C760.185 313.032 762.815 313.032 764.961 314.253L863.305 370.199C868.023 372.883 868.023 379.684 863.305 382.368L764.961 438.315C762.815 439.535 760.185 439.535 758.039 438.315L659.695 382.368Z" fill="#303234"/>
        <animate attributeName="opacity"
            values="0; 0; 1; 1;"
            keyTimes="0; 0.5; 0.6; 1"
            dur="10s"
        />
    </g>
    <g filter="url(#filter5_dddd)">
        <path d="M659.695 187.512C654.977 184.828 654.977 178.028 659.695 175.343L758.039 119.397C760.185 118.176 762.815 118.176 764.961 119.397L863.305 175.343C868.023 178.028 868.023 184.828 863.305 187.512L764.961 243.459C762.815 244.679 760.185 244.679 758.039 243.459L659.695 187.512Z" fill="#303234"/>
        <animate attributeName="opacity"
            values="0; 0; 1; 1;"
            keyTimes="0; 0.4; 0.5; 1"
            dur="10s"
        />
    </g>
    <g filter="url(#filter6_dddd)">
        <circle cx="450" cy="375" r="60" fill="#303234"/>
        <animate attributeName="opacity"
            values="0; 0; 1; 1;"
            keyTimes="0; 0.2; 0.3; 1"
            dur="10s"
        />
    </g>
    <path d="M481.781 374.587C481.761 374.212 481.608 373.856 481.351 373.582C481.093 373.309 480.747 373.135 480.373 373.092L476.517 372.468C476.344 372.44 476.184 372.356 476.062 372.229C475.94 372.103 475.863 371.94 475.841 371.766C475.767 371.292 475.69 370.8 475.585 370.334C475.551 370.165 475.571 369.989 475.642 369.831C475.713 369.673 475.831 369.541 475.981 369.454L479.406 367.552C479.747 367.378 480.011 367.086 480.15 366.73C480.289 366.375 480.292 365.98 480.158 365.622L479.564 363.983C479.434 363.624 479.176 363.326 478.839 363.145C478.503 362.964 478.111 362.914 477.74 363.004L473.898 363.756C473.726 363.787 473.549 363.762 473.392 363.687C473.234 363.611 473.105 363.487 473.022 363.333C472.798 362.914 472.555 362.487 472.301 362.067C472.208 361.918 472.165 361.743 472.177 361.568C472.189 361.392 472.255 361.225 472.367 361.09L474.923 358.136C475.183 357.857 475.332 357.493 475.343 357.112C475.354 356.731 475.225 356.36 474.982 356.067L473.866 354.727C473.623 354.432 473.28 354.239 472.903 354.183C472.525 354.128 472.141 354.214 471.824 354.426L468.46 356.446C468.31 356.535 468.136 356.574 467.963 356.557C467.79 356.54 467.627 356.468 467.499 356.351C467.127 356.024 466.747 355.71 466.39 355.42C466.253 355.312 466.155 355.163 466.108 354.995C466.061 354.827 466.07 354.649 466.131 354.486L467.524 350.816C467.676 350.466 467.694 350.073 467.574 349.71C467.455 349.348 467.206 349.042 466.876 348.851L465.358 347.965C465.028 347.774 464.639 347.713 464.266 347.791C463.892 347.87 463.561 348.083 463.336 348.391L460.877 351.48C460.788 351.614 460.656 351.713 460.502 351.76C460.349 351.808 460.183 351.8 460.035 351.738C459.943 351.701 459.167 351.383 458.564 351.182C458.398 351.128 458.255 351.023 458.153 350.881C458.052 350.739 457.999 350.569 458.001 350.395L458.06 346.475C458.081 346.092 457.962 345.714 457.724 345.413C457.487 345.112 457.148 344.908 456.771 344.838L455.049 344.538C454.674 344.473 454.288 344.546 453.963 344.745C453.638 344.943 453.396 345.253 453.282 345.616L452.004 349.347C451.946 349.513 451.836 349.655 451.691 349.754C451.546 349.853 451.373 349.903 451.198 349.896H449.731C449.557 349.9 449.387 349.848 449.244 349.749C449.1 349.65 448.992 349.508 448.934 349.344L447.662 345.634C447.55 345.268 447.309 344.955 446.983 344.755C446.657 344.554 446.269 344.479 445.892 344.544L444.167 344.844C443.792 344.913 443.455 345.116 443.218 345.414C442.982 345.712 442.861 346.087 442.88 346.467L442.94 350.401C442.941 350.578 442.885 350.75 442.78 350.892C442.676 351.035 442.528 351.139 442.359 351.191C442.015 351.325 441.267 351.61 440.928 351.737C440.627 351.845 440.299 351.726 440.034 351.421L437.589 348.413C437.364 348.104 437.034 347.888 436.66 347.808C436.286 347.728 435.896 347.788 435.565 347.979L434.052 348.855C433.718 349.047 433.467 349.355 433.347 349.721C433.227 350.087 433.246 350.484 433.402 350.836L434.793 354.496C434.854 354.66 434.862 354.838 434.816 355.006C434.77 355.174 434.673 355.324 434.537 355.433C434.172 355.734 433.797 356.035 433.425 356.369C433.296 356.485 433.135 356.557 432.963 356.574C432.791 356.591 432.618 356.553 432.47 356.465L429.144 354.406C428.825 354.199 428.441 354.114 428.064 354.17C427.687 354.225 427.344 354.416 427.098 354.707L425.986 356.044C425.739 356.335 425.609 356.707 425.619 357.089C425.629 357.47 425.78 357.834 426.042 358.112L428.611 361.063C428.725 361.195 428.793 361.362 428.805 361.536C428.817 361.711 428.773 361.885 428.678 362.033C428.421 362.442 428.176 362.872 427.953 363.302C427.87 363.457 427.74 363.581 427.582 363.657C427.423 363.733 427.245 363.757 427.072 363.726L423.236 362.985C422.864 362.895 422.473 362.945 422.136 363.126C421.799 363.306 421.541 363.605 421.41 363.964L420.808 365.6C420.675 365.958 420.678 366.353 420.817 366.709C420.956 367.065 421.22 367.358 421.56 367.532L424.986 369.435C425.14 369.52 425.262 369.653 425.334 369.813C425.406 369.974 425.424 370.154 425.385 370.325L425.349 370.516C425.27 370.936 425.198 371.333 425.129 371.755C425.105 371.927 425.027 372.088 424.907 372.213C424.786 372.338 424.629 372.422 424.458 372.453L420.595 373.077C420.217 373.124 419.869 373.306 419.616 373.59C419.362 373.874 419.221 374.241 419.219 374.622V376.363C419.216 376.745 419.356 377.115 419.611 377.4C419.865 377.685 420.216 377.865 420.596 377.906L424.458 378.529C424.632 378.557 424.792 378.641 424.914 378.767C425.036 378.894 425.113 379.057 425.135 379.231C425.209 379.706 425.285 380.197 425.391 380.663C425.425 380.832 425.405 381.008 425.334 381.166C425.263 381.324 425.144 381.456 424.995 381.543L421.571 383.448C421.231 383.622 420.966 383.914 420.827 384.27C420.689 384.625 420.686 385.02 420.819 385.378L421.42 387.017C421.551 387.376 421.809 387.674 422.146 387.855C422.482 388.035 422.873 388.086 423.245 387.996L427.087 387.252C427.259 387.22 427.436 387.244 427.593 387.32C427.751 387.396 427.88 387.52 427.962 387.674C428.188 388.095 428.43 388.521 428.684 388.94C428.777 389.09 428.82 389.264 428.809 389.44C428.797 389.615 428.73 389.782 428.618 389.918L426.061 392.87C425.799 393.147 425.646 393.51 425.632 393.891C425.618 394.273 425.744 394.646 425.986 394.941L427.101 396.281C427.343 396.575 427.686 396.769 428.064 396.825C428.441 396.88 428.826 396.794 429.143 396.582L432.507 394.562C432.656 394.473 432.83 394.434 433.003 394.451C433.176 394.468 433.339 394.54 433.468 394.657C433.841 394.983 434.22 395.297 434.577 395.588C434.713 395.696 434.812 395.844 434.859 396.012C434.906 396.18 434.898 396.358 434.837 396.522L433.443 400.191C433.291 400.541 433.273 400.935 433.393 401.297C433.512 401.66 433.761 401.966 434.091 402.157L435.611 403.035C435.941 403.226 436.33 403.288 436.704 403.21C437.077 403.131 437.408 402.918 437.634 402.611L440.123 399.55C440.333 399.29 440.664 399.175 440.909 399.274C441.433 399.49 441.783 399.612 442.404 399.82C442.57 399.874 442.714 399.979 442.815 400.121C442.917 400.262 442.97 400.432 442.968 400.606L442.908 404.524C442.888 404.907 443.007 405.284 443.245 405.585C443.482 405.886 443.82 406.09 444.197 406.16L445.919 406.461C446.294 406.526 446.68 406.453 447.006 406.255C447.331 406.056 447.573 405.746 447.686 405.383L448.964 401.657C449.022 401.492 449.132 401.349 449.277 401.25C449.422 401.151 449.595 401.102 449.77 401.109H451.237C451.411 401.105 451.582 401.156 451.725 401.255C451.868 401.354 451.976 401.496 452.034 401.66L453.308 405.371C453.406 405.693 453.606 405.975 453.876 406.175C454.147 406.376 454.475 406.484 454.812 406.485C454.901 406.485 454.991 406.477 455.079 406.461L456.804 406.16C457.179 406.091 457.516 405.889 457.753 405.591C457.989 405.292 458.11 404.918 458.092 404.537L458.031 400.603C458.03 400.43 458.084 400.261 458.186 400.12C458.287 399.979 458.431 399.875 458.595 399.821C459.173 399.627 459.579 399.471 459.935 399.332L460.026 399.298C460.492 399.137 460.717 399.332 460.848 399.495L463.367 402.597C463.593 402.904 463.924 403.117 464.297 403.195C464.67 403.274 465.058 403.212 465.389 403.021L466.903 402.145C467.234 401.953 467.483 401.647 467.603 401.283C467.723 400.92 467.704 400.525 467.551 400.175L466.162 396.514C466.1 396.351 466.092 396.173 466.137 396.005C466.183 395.836 466.28 395.687 466.416 395.577C466.781 395.276 467.156 394.976 467.529 394.642C467.657 394.526 467.82 394.454 467.993 394.437C468.166 394.42 468.339 394.459 468.488 394.548L471.855 396.564C472.175 396.772 472.559 396.856 472.936 396.801C473.313 396.745 473.656 396.554 473.902 396.263L475.015 394.924C475.262 394.633 475.393 394.261 475.382 393.88C475.372 393.498 475.222 393.134 474.959 392.857L472.394 389.898C472.28 389.765 472.212 389.599 472.199 389.425C472.187 389.25 472.232 389.076 472.326 388.928C472.583 388.521 472.828 388.091 473.051 387.659C473.135 387.505 473.265 387.381 473.423 387.304C473.581 387.228 473.759 387.204 473.932 387.235L477.764 387.982C478.136 388.072 478.527 388.022 478.864 387.841C479.201 387.661 479.459 387.362 479.59 387.003L480.184 385.367C480.317 385.009 480.314 384.615 480.175 384.259C480.037 383.903 479.772 383.61 479.432 383.436L476.003 381.531C475.851 381.445 475.731 381.312 475.66 381.153C475.59 380.993 475.572 380.815 475.611 380.645L475.647 380.454C475.725 380.034 475.797 379.637 475.866 379.215C475.89 379.042 475.968 378.882 476.088 378.757C476.209 378.632 476.366 378.548 476.537 378.517L480.401 377.894C480.779 377.849 481.128 377.666 481.383 377.382C481.637 377.097 481.778 376.73 481.781 376.348V374.587V374.587ZM439.303 388.724C439.116 389.05 438.854 389.327 438.539 389.531C438.223 389.736 437.864 389.864 437.49 389.903C437.116 389.942 436.739 389.891 436.388 389.756C436.037 389.621 435.724 389.404 435.473 389.124C432.085 385.378 430.214 380.504 430.226 375.452C430.237 370.401 432.131 365.536 435.536 361.805C435.788 361.525 436.103 361.309 436.455 361.175C436.807 361.04 437.186 360.992 437.56 361.032C437.935 361.073 438.294 361.202 438.609 361.409C438.924 361.616 439.185 361.894 439.371 362.222L446.236 374.306C446.442 374.666 446.551 375.074 446.551 375.489C446.551 375.905 446.442 376.313 446.236 376.673L439.303 388.724ZM450.5 395.819C449.069 395.82 447.642 395.668 446.242 395.368C445.878 395.287 445.538 395.121 445.249 394.883C444.961 394.646 444.733 394.344 444.583 394.001C444.433 393.659 444.366 393.287 444.387 392.914C444.408 392.541 444.516 392.178 444.704 391.855L451.622 379.824C451.83 379.461 452.13 379.16 452.492 378.951C452.853 378.741 453.264 378.631 453.682 378.631H467.539C467.912 378.631 468.281 378.718 468.614 378.886C468.947 379.054 469.236 379.299 469.457 379.599C469.678 379.9 469.825 380.249 469.887 380.617C469.948 380.985 469.922 381.363 469.81 381.719C467.18 389.888 459.523 395.819 450.5 395.819ZM451.629 371.17L444.785 359.118C444.6 358.794 444.493 358.432 444.473 358.059C444.454 357.687 444.523 357.315 444.674 356.974C444.825 356.632 445.054 356.332 445.342 356.095C445.631 355.859 445.971 355.694 446.336 355.614C447.705 355.325 449.1 355.18 450.5 355.181C459.523 355.181 467.18 361.112 469.806 369.286C469.917 369.642 469.944 370.019 469.882 370.388C469.821 370.756 469.674 371.104 469.452 371.405C469.231 371.706 468.942 371.95 468.609 372.118C468.276 372.287 467.908 372.374 467.535 372.373H453.699C453.278 372.374 452.865 372.263 452.501 372.052C452.138 371.84 451.837 371.536 451.629 371.17Z" fill="url(#paint5_linear)">
        <animateTransform attributeName="transform"
            type="rotate"
            values="0 450.5 375.79; 3600 450.5 375.79;"
            dur="20s"
            repeatCount="indefinite"
        />
        <animate attributeName="opacity"
            values="0; 0; 1; 1;"
            keyTimes="0; 0.2; 0.3; 1"
            dur="10s"
        />
    </path>
    <defs>
        <filter id="filter0_dddd" x="3.5849" y="319.404" width="267.83" height="241.471" filterUnits="userSpaceOnUse" color-interpolation-filters="sRGB">
            <feFlood flood-opacity="0" result="BackgroundImageFix"/>
            <feColorMatrix in="SourceAlpha" type="matrix" values="0 0 0 0 0 0 0 0 0 0 0 0 0 0 0 0 0 0 127 0"/>
            <feOffset dx="4" dy="4"/>
            <feGaussianBlur stdDeviation="11"/>
            <feColorMatrix type="matrix" values="0 0 0 0 0.945098 0 0 0 0 0.513726 0 0 0 0 0.0117647 0 0 0 1 0"/>
            <feBlend mode="normal" in2="BackgroundImageFix" result="effect1_dropShadow"/>
            <feColorMatrix in="SourceAlpha" type="matrix" values="0 0 0 0 0 0 0 0 0 0 0 0 0 0 0 0 0 0 127 0"/>
            <feOffset dx="-4" dy="4"/>
            <feGaussianBlur stdDeviation="11"/>
            <feColorMatrix type="matrix" values="0 0 0 0 0.945098 0 0 0 0 0.513726 0 0 0 0 0.0117647 0 0 0 1 0"/>
            <feBlend mode="normal" in2="effect1_dropShadow" result="effect2_dropShadow"/>
            <feColorMatrix in="SourceAlpha" type="matrix" values="0 0 0 0 0 0 0 0 0 0 0 0 0 0 0 0 0 0 127 0"/>
            <feOffset dx="4" dy="-4"/>
            <feGaussianBlur stdDeviation="11"/>
            <feColorMatrix type="matrix" values="0 0 0 0 0.945098 0 0 0 0 0.513726 0 0 0 0 0.0117647 0 0 0 1 0"/>
            <feBlend mode="normal" in2="effect2_dropShadow" result="effect3_dropShadow"/>
            <feColorMatrix in="SourceAlpha" type="matrix" values="0 0 0 0 0 0 0 0 0 0 0 0 0 0 0 0 0 0 127 0"/>
            <feOffset dx="-4" dy="-4"/>
            <feGaussianBlur stdDeviation="11"/>
            <feColorMatrix type="matrix" values="0 0 0 0 0.945098 0 0 0 0 0.513726 0 0 0 0 0.0117647 0 0 0 1 0"/>
            <feBlend mode="normal" in2="effect3_dropShadow" result="effect4_dropShadow"/>
            <feBlend mode="normal" in="SourceGraphic" in2="effect4_dropShadow" result="shape"/>
        </filter>
        <filter id="filter1_dddd" x="3.5849" y="254.548" width="267.83" height="241.471" filterUnits="userSpaceOnUse" color-interpolation-filters="sRGB">
            <feFlood flood-opacity="0" result="BackgroundImageFix"/>
            <feColorMatrix in="SourceAlpha" type="matrix" values="0 0 0 0 0 0 0 0 0 0 0 0 0 0 0 0 0 0 127 0"/>
            <feOffset dx="4" dy="4"/>
            <feGaussianBlur stdDeviation="11"/>
            <feColorMatrix type="matrix" values="0 0 0 0 0.0117647 0 0 0 0 0.662745 0 0 0 0 0.945098 0 0 0 1 0"/>
            <feBlend mode="normal" in2="BackgroundImageFix" result="effect1_dropShadow"/>
            <feColorMatrix in="SourceAlpha" type="matrix" values="0 0 0 0 0 0 0 0 0 0 0 0 0 0 0 0 0 0 127 0"/>
            <feOffset dx="-4" dy="4"/>
            <feGaussianBlur stdDeviation="11"/>
            <feColorMatrix type="matrix" values="0 0 0 0 0.0117647 0 0 0 0 0.662745 0 0 0 0 0.945098 0 0 0 1 0"/>
            <feBlend mode="normal" in2="effect1_dropShadow" result="effect2_dropShadow"/>
            <feColorMatrix in="SourceAlpha" type="matrix" values="0 0 0 0 0 0 0 0 0 0 0 0 0 0 0 0 0 0 127 0"/>
            <feOffset dx="4" dy="-4"/>
            <feGaussianBlur stdDeviation="11"/>
            <feColorMatrix type="matrix" values="0 0 0 0 0.0117647 0 0 0 0 0.662745 0 0 0 0 0.945098 0 0 0 1 0"/>
            <feBlend mode="normal" in2="effect2_dropShadow" result="effect3_dropShadow"/>
            <feColorMatrix in="SourceAlpha" type="matrix" values="0 0 0 0 0 0 0 0 0 0 0 0 0 0 0 0 0 0 127 0"/>
            <feOffset dx="-4" dy="-4"/>
            <feGaussianBlur stdDeviation="11"/>
            <feColorMatrix type="matrix" values="0 0 0 0 0.0117647 0 0 0 0 0.662745 0 0 0 0 0.945098 0 0 0 1 0"/>
            <feBlend mode="normal" in2="effect3_dropShadow" result="effect4_dropShadow"/>
            <feBlend mode="normal" in="SourceGraphic" in2="effect4_dropShadow" result="shape"/>
        </filter>
        <filter id="filter2_dddd" x="3.5849" y="189.692" width="267.83" height="241.471" filterUnits="userSpaceOnUse" color-interpolation-filters="sRGB">
            <feFlood flood-opacity="0" result="BackgroundImageFix"/>
            <feColorMatrix in="SourceAlpha" type="matrix" values="0 0 0 0 0 0 0 0 0 0 0 0 0 0 0 0 0 0 127 0"/>
            <feOffset dx="4" dy="4"/>
            <feGaussianBlur stdDeviation="11"/>
            <feColorMatrix type="matrix" values="0 0 0 0 0.282353 0 0 0 0 0.898039 0 0 0 0 0.760784 0 0 0 1 0"/>
            <feBlend mode="normal" in2="BackgroundImageFix" result="effect1_dropShadow"/>
            <feColorMatrix in="SourceAlpha" type="matrix" values="0 0 0 0 0 0 0 0 0 0 0 0 0 0 0 0 0 0 127 0"/>
            <feOffset dx="-4" dy="4"/>
            <feGaussianBlur stdDeviation="11"/>
            <feColorMatrix type="matrix" values="0 0 0 0 0.282353 0 0 0 0 0.898039 0 0 0 0 0.760784 0 0 0 1 0"/>
            <feBlend mode="normal" in2="effect1_dropShadow" result="effect2_dropShadow"/>
            <feColorMatrix in="SourceAlpha" type="matrix" values="0 0 0 0 0 0 0 0 0 0 0 0 0 0 0 0 0 0 127 0"/>
            <feOffset dx="4" dy="-4"/>
            <feGaussianBlur stdDeviation="11"/>
            <feColorMatrix type="matrix" values="0 0 0 0 0.282353 0 0 0 0 0.898039 0 0 0 0 0.760784 0 0 0 1 0"/>
            <feBlend mode="normal" in2="effect2_dropShadow" result="effect3_dropShadow"/>
            <feColorMatrix in="SourceAlpha" type="matrix" values="0 0 0 0 0 0 0 0 0 0 0 0 0 0 0 0 0 0 127 0"/>
            <feOffset dx="-4" dy="-4"/>
            <feGaussianBlur stdDeviation="11"/>
            <feColorMatrix type="matrix" values="0 0 0 0 0.282353 0 0 0 0 0.898039 0 0 0 0 0.760784 0 0 0 1 0"/>
            <feBlend mode="normal" in2="effect3_dropShadow" result="effect4_dropShadow"/>
            <feBlend mode="normal" in="SourceGraphic" in2="effect4_dropShadow" result="shape"/>
        </filter>
        <filter id="filter3_dddd" x="627.585" y="450.404" width="267.83" height="241.471" filterUnits="userSpaceOnUse" color-interpolation-filters="sRGB">
            <feFlood flood-opacity="0" result="BackgroundImageFix"/>
            <feColorMatrix in="SourceAlpha" type="matrix" values="0 0 0 0 0 0 0 0 0 0 0 0 0 0 0 0 0 0 127 0"/>
            <feOffset dx="4" dy="4"/>
            <feGaussianBlur stdDeviation="11"/>
            <feColorMatrix type="matrix" values="0 0 0 0 0.945098 0 0 0 0 0.513726 0 0 0 0 0.0117647 0 0 0 1 0"/>
            <feBlend mode="normal" in2="BackgroundImageFix" result="effect1_dropShadow"/>
            <feColorMatrix in="SourceAlpha" type="matrix" values="0 0 0 0 0 0 0 0 0 0 0 0 0 0 0 0 0 0 127 0"/>
            <feOffset dx="-4" dy="4"/>
            <feGaussianBlur stdDeviation="11"/>
            <feColorMatrix type="matrix" values="0 0 0 0 0.945098 0 0 0 0 0.513726 0 0 0 0 0.0117647 0 0 0 1 0"/>
            <feBlend mode="normal" in2="effect1_dropShadow" result="effect2_dropShadow"/>
            <feColorMatrix in="SourceAlpha" type="matrix" values="0 0 0 0 0 0 0 0 0 0 0 0 0 0 0 0 0 0 127 0"/>
            <feOffset dx="4" dy="-4"/>
            <feGaussianBlur stdDeviation="11"/>
            <feColorMatrix type="matrix" values="0 0 0 0 0.945098 0 0 0 0 0.513726 0 0 0 0 0.0117647 0 0 0 1 0"/>
            <feBlend mode="normal" in2="effect2_dropShadow" result="effect3_dropShadow"/>
            <feColorMatrix in="SourceAlpha" type="matrix" values="0 0 0 0 0 0 0 0 0 0 0 0 0 0 0 0 0 0 127 0"/>
            <feOffset dx="-4" dy="-4"/>
            <feGaussianBlur stdDeviation="11"/>
            <feColorMatrix type="matrix" values="0 0 0 0 0.945098 0 0 0 0 0.513726 0 0 0 0 0.0117647 0 0 0 1 0"/>
            <feBlend mode="normal" in2="effect3_dropShadow" result="effect4_dropShadow"/>
            <feBlend mode="normal" in="SourceGraphic" in2="effect4_dropShadow" result="shape"/>
        </filter>
        <filter id="filter4_dddd" x="627.585" y="255.548" width="267.83" height="241.471" filterUnits="userSpaceOnUse" color-interpolation-filters="sRGB">
            <feFlood flood-opacity="0" result="BackgroundImageFix"/>
            <feColorMatrix in="SourceAlpha" type="matrix" values="0 0 0 0 0 0 0 0 0 0 0 0 0 0 0 0 0 0 127 0"/>
            <feOffset dx="4" dy="4"/>
            <feGaussianBlur stdDeviation="11"/>
            <feColorMatrix type="matrix" values="0 0 0 0 0.0117647 0 0 0 0 0.662745 0 0 0 0 0.945098 0 0 0 1 0"/>
            <feBlend mode="normal" in2="BackgroundImageFix" result="effect1_dropShadow"/>
            <feColorMatrix in="SourceAlpha" type="matrix" values="0 0 0 0 0 0 0 0 0 0 0 0 0 0 0 0 0 0 127 0"/>
            <feOffset dx="-4" dy="4"/>
            <feGaussianBlur stdDeviation="11"/>
            <feColorMatrix type="matrix" values="0 0 0 0 0.0117647 0 0 0 0 0.662745 0 0 0 0 0.945098 0 0 0 1 0"/>
            <feBlend mode="normal" in2="effect1_dropShadow" result="effect2_dropShadow"/>
            <feColorMatrix in="SourceAlpha" type="matrix" values="0 0 0 0 0 0 0 0 0 0 0 0 0 0 0 0 0 0 127 0"/>
            <feOffset dx="4" dy="-4"/>
            <feGaussianBlur stdDeviation="11"/>
            <feColorMatrix type="matrix" values="0 0 0 0 0.0117647 0 0 0 0 0.662745 0 0 0 0 0.945098 0 0 0 1 0"/>
            <feBlend mode="normal" in2="effect2_dropShadow" result="effect3_dropShadow"/>
            <feColorMatrix in="SourceAlpha" type="matrix" values="0 0 0 0 0 0 0 0 0 0 0 0 0 0 0 0 0 0 127 0"/>
            <feOffset dx="-4" dy="-4"/>
            <feGaussianBlur stdDeviation="11"/>
            <feColorMatrix type="matrix" values="0 0 0 0 0.0117647 0 0 0 0 0.662745 0 0 0 0 0.945098 0 0 0 1 0"/>
            <feBlend mode="normal" in2="effect3_dropShadow" result="effect4_dropShadow"/>
            <feBlend mode="normal" in="SourceGraphic" in2="effect4_dropShadow" result="shape"/>
        </filter>
        <filter id="filter5_dddd" x="627.585" y="60.6919" width="267.83" height="241.471" filterUnits="userSpaceOnUse" color-interpolation-filters="sRGB">
            <feFlood flood-opacity="0" result="BackgroundImageFix"/>
            <feColorMatrix in="SourceAlpha" type="matrix" values="0 0 0 0 0 0 0 0 0 0 0 0 0 0 0 0 0 0 127 0"/>
            <feOffset dx="4" dy="4"/>
            <feGaussianBlur stdDeviation="11"/>
            <feColorMatrix type="matrix" values="0 0 0 0 0.282353 0 0 0 0 0.898039 0 0 0 0 0.760784 0 0 0 1 0"/>
            <feBlend mode="normal" in2="BackgroundImageFix" result="effect1_dropShadow"/>
            <feColorMatrix in="SourceAlpha" type="matrix" values="0 0 0 0 0 0 0 0 0 0 0 0 0 0 0 0 0 0 127 0"/>
            <feOffset dx="-4" dy="4"/>
            <feGaussianBlur stdDeviation="11"/>
            <feColorMatrix type="matrix" values="0 0 0 0 0.282353 0 0 0 0 0.898039 0 0 0 0 0.760784 0 0 0 1 0"/>
            <feBlend mode="normal" in2="effect1_dropShadow" result="effect2_dropShadow"/>
            <feColorMatrix in="SourceAlpha" type="matrix" values="0 0 0 0 0 0 0 0 0 0 0 0 0 0 0 0 0 0 127 0"/>
            <feOffset dx="4" dy="-4"/>
            <feGaussianBlur stdDeviation="11"/>
            <feColorMatrix type="matrix" values="0 0 0 0 0.282353 0 0 0 0 0.898039 0 0 0 0 0.760784 0 0 0 1 0"/>
            <feBlend mode="normal" in2="effect2_dropShadow" result="effect3_dropShadow"/>
            <feColorMatrix in="SourceAlpha" type="matrix" values="0 0 0 0 0 0 0 0 0 0 0 0 0 0 0 0 0 0 127 0"/>
            <feOffset dx="-4" dy="-4"/>
            <feGaussianBlur stdDeviation="11"/>
            <feColorMatrix type="matrix" values="0 0 0 0 0.282353 0 0 0 0 0.898039 0 0 0 0 0.760784 0 0 0 1 0"/>
            <feBlend mode="normal" in2="effect3_dropShadow" result="effect4_dropShadow"/>
            <feBlend mode="normal" in="SourceGraphic" in2="effect4_dropShadow" result="shape"/>
        </filter>
        <filter id="filter6_dddd" x="364" y="289" width="172" height="172" filterUnits="userSpaceOnUse" color-interpolation-filters="sRGB">
            <feFlood flood-opacity="0" result="BackgroundImageFix"/>
            <feColorMatrix in="SourceAlpha" type="matrix" values="0 0 0 0 0 0 0 0 0 0 0 0 0 0 0 0 0 0 127 0"/>
            <feOffset dy="4"/>
            <feGaussianBlur stdDeviation="11"/>
            <feColorMatrix type="matrix" values="0 0 0 0 0.945098 0 0 0 0 0.513726 0 0 0 0 0.0117647 0 0 0 0.2 0"/>
            <feBlend mode="normal" in2="BackgroundImageFix" result="effect1_dropShadow"/>
            <feColorMatrix in="SourceAlpha" type="matrix" values="0 0 0 0 0 0 0 0 0 0 0 0 0 0 0 0 0 0 127 0"/>
            <feOffset dx="4" dy="-4"/>
            <feGaussianBlur stdDeviation="11"/>
            <feColorMatrix type="matrix" values="0 0 0 0 0.0117647 0 0 0 0 0.662745 0 0 0 0 0.945098 0 0 0 1 0"/>
            <feBlend mode="normal" in2="effect1_dropShadow" result="effect2_dropShadow"/>
            <feColorMatrix in="SourceAlpha" type="matrix" values="0 0 0 0 0 0 0 0 0 0 0 0 0 0 0 0 0 0 127 0"/>
            <feOffset dx="-4" dy="-4"/>
            <feGaussianBlur stdDeviation="11"/>
            <feColorMatrix type="matrix" values="0 0 0 0 0.282353 0 0 0 0 0.898039 0 0 0 0 0.760784 0 0 0 1 0"/>
            <feBlend mode="normal" in2="effect2_dropShadow" result="effect3_dropShadow"/>
            <feColorMatrix in="SourceAlpha" type="matrix" values="0 0 0 0 0 0 0 0 0 0 0 0 0 0 0 0 0 0 127 0"/>
            <feOffset dx="4" dy="4"/>
            <feGaussianBlur stdDeviation="11"/>
            <feColorMatrix type="matrix" values="0 0 0 0 0.945098 0 0 0 0 0.513726 0 0 0 0 0.0117647 0 0 0 1 0"/>
            <feBlend mode="normal" in2="effect3_dropShadow" result="effect4_dropShadow"/>
            <feBlend mode="normal" in="SourceGraphic" in2="effect4_dropShadow" result="shape"/>
        </filter>
        <linearGradient id="paint0_linear" x1="294" y1="380" x2="294" y2="480" gradientUnits="userSpaceOnUse">
            <stop stop-color="#06D6A0"/>
            <stop offset="0.515625" stop-color="#03A9F1"/>
            <stop offset="1" stop-color="#F18303"/>
        </linearGradient>
        <linearGradient id="paint1_linear" x1="280" y1="380" x2="280" y2="480" gradientUnits="userSpaceOnUse">
            <stop stop-color="#06D6A0"/>
            <stop offset="0.515625" stop-color="#03A9F1"/>
            <stop offset="1" stop-color="#F18303"/>
        </linearGradient>
        <linearGradient id="paint2_linear" x1="530" y1="381" x2="530" y2="483" gradientUnits="userSpaceOnUse">
            <stop stop-color="#F18303"/>
            <stop offset="0.505208" stop-color="#06D6A0"/>
            <stop offset="1" stop-color="#03A9F1"/>
        </linearGradient>
        <linearGradient id="paint3_linear" x1="528" y1="400.432" x2="528" y2="590.432" gradientUnits="userSpaceOnUse">
            <stop stop-color="#06D6A0"/>
            <stop offset="0.515625" stop-color="#03A9F1"/>
            <stop offset="1" stop-color="#F18303"/>
        </linearGradient>
        <linearGradient id="paint4_linear" x1="535.157" y1="357.855" x2="535.157" y2="547.855" gradientUnits="userSpaceOnUse">
            <stop stop-color="#03A9F1"/>
            <stop offset="0.520833" stop-color="#F18303"/>
            <stop offset="1" stop-color="#06D6A0"/>
        </linearGradient>
        <linearGradient id="paint5_linear" x1="450.5" y1="344.515" x2="450.5" y2="406.485" gradientUnits="userSpaceOnUse">
            <stop stop-color="#48E5C2"/>
            <stop offset="1" stop-color="#03A9F1"/>
        </linearGradient>
    </defs>
</svg>
