<svg width="255" height="205" viewBox="0 0 255 205" fill="none" xmlns="http://www.w3.org/2000/svg">
<g filter="url(#filter0_d)">
<path d="M21.6951 113.194C16.9769 110.51 16.9769 103.71 21.6951 101.026L120.039 45.0791C122.185 43.8582 124.815 43.8582 126.961 45.0791L225.305 101.026C230.023 103.71 230.023 110.51 225.305 113.194L126.961 169.141C124.815 170.362 122.185 170.362 120.039 169.141L21.6951 113.194Z" fill="#303234"/>
<path d="M21.6951 111.339C16.9769 108.654 16.9769 101.854 21.6951 99.1699L120.039 43.2234C122.185 42.0025 124.815 42.0025 126.961 43.2234L225.305 99.1699C230.023 101.854 230.023 108.654 225.305 111.339L126.961 167.285C124.815 168.506 122.185 168.506 120.039 167.285L21.6951 111.339Z" fill="#303234"/>
<path d="M21.6951 109.483C16.9769 106.799 16.9769 99.9983 21.6951 97.3141L120.039 41.3676C122.185 40.1467 124.815 40.1467 126.961 41.3676L225.305 97.3141C230.023 99.9983 230.023 106.799 225.305 109.483L126.961 165.429C124.815 166.65 122.185 166.65 120.039 165.429L21.6951 109.483Z" fill="#303234"/>
<path d="M21.6951 107.627C16.9769 104.943 16.9769 98.1425 21.6951 95.4584L120.039 39.5119C122.185 38.291 124.815 38.291 126.961 39.5119L225.305 95.4584C230.023 98.1425 230.023 104.943 225.305 107.627L126.961 163.574C124.815 164.794 122.185 164.795 120.039 163.574L21.6951 107.627Z" fill="#303234"/>
<path d="M21.6951 105.771C16.9769 103.087 16.9769 96.2868 21.6951 93.6026L120.039 37.6561C122.185 36.4353 124.815 36.4353 126.961 37.6561L225.305 93.6026C230.023 96.2868 230.023 103.087 225.305 105.771L126.961 161.718C124.815 162.939 122.185 162.939 120.039 161.718L21.6951 105.771Z" fill="#303234"/>
<path d="M21.6951 103.916C16.9769 101.231 16.9769 94.4311 21.6951 91.7469L120.039 35.8004C122.185 34.5795 124.815 34.5795 126.961 35.8004L225.305 91.7469C230.023 94.4311 230.023 101.231 225.305 103.916L126.961 159.862C124.815 161.083 122.185 161.083 120.039 159.862L21.6951 103.916Z" fill="#303234"/>
</g>
<defs>
<filter id="filter0_d" x="0.156464" y="16.8847" width="254.687" height="179.172" filterUnits="userSpaceOnUse" color-interpolation-filters="sRGB">
<feFlood flood-opacity="0" result="BackgroundImageFix"/>
<feColorMatrix in="SourceAlpha" type="matrix" values="0 0 0 0 0 0 0 0 0 0 0 0 0 0 0 0 0 0 127 0"/>
<feOffset dx="4" dy="4"/>
<feGaussianBlur stdDeviation="11"/>
<feColorMatrix type="matrix" values="0 0 0 0 0.976471 0 0 0 0 0.266667 0 0 0 0 0.0352941 0 0 0 1 0"/>
<feBlend mode="normal" in2="BackgroundImageFix" result="effect1_dropShadow"/>
<feBlend mode="normal" in="SourceGraphic" in2="effect1_dropShadow" result="shape"/>
</filter>
</defs>
</svg>
