<svg width="255" height="205" viewBox="0 0 255 205" fill="none" xmlns="http://www.w3.org/2000/svg">
<g filter="url(#filter0_d)">
<path d="M21.6951 112.925C16.9769 110.241 16.9769 103.441 21.6951 100.757L120.039 44.8102C122.185 43.5893 124.815 43.5893 126.961 44.8102L225.305 100.757C230.023 103.441 230.023 110.241 225.305 112.925L126.961 168.872C124.815 170.093 122.185 170.093 120.039 168.872L21.6951 112.925Z" fill="#303234"/>
<path d="M21.6951 111.07C16.9769 108.385 16.9769 101.585 21.6951 98.901L120.039 42.9544C122.185 41.7336 124.815 41.7336 126.961 42.9544L225.305 98.901C230.023 101.585 230.023 108.385 225.305 111.07L126.961 167.016C124.815 168.237 122.185 168.237 120.039 167.016L21.6951 111.07Z" fill="#303234"/>
<path d="M21.6951 109.214C16.9769 106.53 16.9769 99.7294 21.6951 97.0452L120.039 41.0987C122.185 39.8778 124.815 39.8778 126.961 41.0987L225.305 97.0452C230.023 99.7294 230.023 106.53 225.305 109.214L126.961 165.16C124.815 166.381 122.185 166.381 120.039 165.16L21.6951 109.214Z" fill="#303234"/>
<path d="M21.6951 107.358C16.9769 104.674 16.9769 97.8736 21.6951 95.1895L120.039 39.2429C122.185 38.0221 124.815 38.0221 126.961 39.2429L225.305 95.1895C230.023 97.8736 230.023 104.674 225.305 107.358L126.961 163.305C124.815 164.526 122.185 164.526 120.039 163.305L21.6951 107.358Z" fill="#303234"/>
<path d="M21.6951 105.502C16.9769 102.818 16.9769 96.0179 21.6951 93.3337L120.039 37.3872C122.185 36.1663 124.815 36.1663 126.961 37.3872L225.305 93.3337C230.023 96.0179 230.023 102.818 225.305 105.502L126.961 161.449C124.815 162.67 122.185 162.67 120.039 161.449L21.6951 105.502Z" fill="#303234"/>
<path d="M21.6951 103.647C16.9769 100.963 16.9769 94.1621 21.6951 91.478L120.039 35.5315C122.185 34.3106 124.815 34.3106 126.961 35.5315L225.305 91.478C230.023 94.1621 230.023 100.963 225.305 103.647L126.961 159.593C124.815 160.814 122.185 160.814 120.039 159.593L21.6951 103.647Z" fill="#303234"/>
</g>
<defs>
<filter id="filter0_d" x="0.156464" y="16.6158" width="254.687" height="179.172" filterUnits="userSpaceOnUse" color-interpolation-filters="sRGB">
<feFlood flood-opacity="0" result="BackgroundImageFix"/>
<feColorMatrix in="SourceAlpha" type="matrix" values="0 0 0 0 0 0 0 0 0 0 0 0 0 0 0 0 0 0 127 0"/>
<feOffset dx="4" dy="4"/>
<feGaussianBlur stdDeviation="11"/>
<feColorMatrix type="matrix" values="0 0 0 0 0.0117647 0 0 0 0 0.662745 0 0 0 0 0.945098 0 0 0 1 0"/>
<feBlend mode="normal" in2="BackgroundImageFix" result="effect1_dropShadow"/>
<feBlend mode="normal" in="SourceGraphic" in2="effect1_dropShadow" result="shape"/>
</filter>
</defs>
</svg>
