<svg width="255" height="205" viewBox="0 0 255 205" fill="none" xmlns="http://www.w3.org/2000/svg">
<g filter="url(#filter0_d)">
<path d="M21.6951 113.329C16.9769 110.645 16.9769 103.844 21.6951 101.16L120.039 45.2136C122.185 43.9927 124.815 43.9927 126.961 45.2136L225.305 101.16C230.023 103.844 230.023 110.645 225.305 113.329L126.961 169.275C124.815 170.496 122.185 170.496 120.039 169.275L21.6951 113.329Z" fill="#303234"/>
<path d="M21.6951 111.473C16.9769 108.789 16.9769 101.988 21.6951 99.3043L120.039 43.3578C122.185 42.1369 124.815 42.1369 126.961 43.3578L225.305 99.3043C230.023 101.988 230.023 108.789 225.305 111.473L126.961 167.42C124.815 168.64 122.185 168.64 120.039 167.42L21.6951 111.473Z" fill="#303234"/>
<path d="M21.6951 109.617C16.9769 106.933 16.9769 100.133 21.6951 97.4486L120.039 41.5021C122.185 40.2812 124.815 40.2812 126.961 41.5021L225.305 97.4486C230.023 100.133 230.023 106.933 225.305 109.617L126.961 165.564C124.815 166.785 122.185 166.785 120.039 165.564L21.6951 109.617Z" fill="#303234"/>
<path d="M21.6951 107.762C16.9769 105.077 16.9769 98.277 21.6951 95.5929L120.039 39.6463C122.185 38.4255 124.815 38.4255 126.961 39.6463L225.305 95.5928C230.023 98.277 230.023 105.077 225.305 107.762L126.961 163.708C124.815 164.929 122.185 164.929 120.039 163.708L21.6951 107.762Z" fill="#303234"/>
<path d="M21.6951 105.906C16.9769 103.222 16.9769 96.4213 21.6951 93.7371L120.039 37.7906C122.185 36.5697 124.815 36.5697 126.961 37.7906L225.305 93.7371C230.023 96.4213 230.023 103.222 225.305 105.906L126.961 161.852C124.815 163.073 122.185 163.073 120.039 161.852L21.6951 105.906Z" fill="#303234"/>
<path d="M21.6951 104.05C16.9769 101.366 16.9769 94.5655 21.6951 91.8814L120.039 35.9348C122.185 34.714 124.815 34.714 126.961 35.9348L225.305 91.8814C230.023 94.5655 230.023 101.366 225.305 104.05L126.961 159.997C124.815 161.217 122.185 161.217 120.039 159.997L21.6951 104.05Z" fill="#303234"/>
</g>
<defs>
<filter id="filter0_d" x="0.156464" y="17.0192" width="254.687" height="179.172" filterUnits="userSpaceOnUse" color-interpolation-filters="sRGB">
<feFlood flood-opacity="0" result="BackgroundImageFix"/>
<feColorMatrix in="SourceAlpha" type="matrix" values="0 0 0 0 0 0 0 0 0 0 0 0 0 0 0 0 0 0 127 0"/>
<feOffset dx="4" dy="4"/>
<feGaussianBlur stdDeviation="11"/>
<feColorMatrix type="matrix" values="0 0 0 0 0.909804 0 0 0 0 0.364706 0 0 0 0 0.458824 0 0 0 1 0"/>
<feBlend mode="normal" in2="BackgroundImageFix" result="effect1_dropShadow"/>
<feBlend mode="normal" in="SourceGraphic" in2="effect1_dropShadow" result="shape"/>
</filter>
</defs>
</svg>
