<svg width="255" height="205" viewBox="0 0 255 205" fill="none" xmlns="http://www.w3.org/2000/svg">
<g filter="url(#filter0_d)">
<path d="M21.6951 113.06C16.9769 110.376 16.9769 103.575 21.6951 100.891L120.039 44.9446C122.185 43.7238 124.815 43.7238 126.961 44.9446L225.305 100.891C230.023 103.575 230.023 110.376 225.305 113.06L126.961 169.006C124.815 170.227 122.185 170.227 120.039 169.006L21.6951 113.06Z" fill="#303234"/>
<path d="M21.6951 111.204C16.9769 108.52 16.9769 101.72 21.6951 99.0354L120.039 43.0889C122.185 41.868 124.815 41.868 126.961 43.0889L225.305 99.0354C230.023 101.72 230.023 108.52 225.305 111.204L126.961 167.151C124.815 168.372 122.185 168.372 120.039 167.151L21.6951 111.204Z" fill="#303234"/>
<path d="M21.6951 109.348C16.9769 106.664 16.9769 99.8638 21.6951 97.1797L120.039 41.2331C122.185 40.0123 124.815 40.0123 126.961 41.2331L225.305 97.1797C230.023 99.8638 230.023 106.664 225.305 109.348L126.961 165.295C124.815 166.516 122.185 166.516 120.039 165.295L21.6951 109.348Z" fill="#303234"/>
<path d="M21.6951 107.493C16.9769 104.808 16.9769 98.0081 21.6951 95.3239L120.039 39.3774C122.185 38.1565 124.815 38.1565 126.961 39.3774L225.305 95.3239C230.023 98.0081 230.023 104.808 225.305 107.493L126.961 163.439C124.815 164.66 122.185 164.66 120.039 163.439L21.6951 107.493Z" fill="#303234"/>
<path d="M21.6951 105.637C16.9769 102.953 16.9769 96.1523 21.6951 93.4682L120.039 37.5217C122.185 36.3008 124.815 36.3008 126.961 37.5217L225.305 93.4682C230.023 96.1523 230.023 102.953 225.305 105.637L126.961 161.583C124.815 162.804 122.185 162.804 120.039 161.583L21.6951 105.637Z" fill="#303234"/>
<path d="M21.6951 103.781C16.9769 101.097 16.9769 94.2966 21.6951 91.6124L120.039 35.6659C122.185 34.445 124.815 34.445 126.961 35.6659L225.305 91.6124C230.023 94.2966 230.023 101.097 225.305 103.781L126.961 159.728C124.815 160.949 122.185 160.949 120.039 159.728L21.6951 103.781Z" fill="#303234"/>
</g>
<defs>
<filter id="filter0_d" x="0.156464" y="16.7503" width="254.687" height="179.172" filterUnits="userSpaceOnUse" color-interpolation-filters="sRGB">
<feFlood flood-opacity="0" result="BackgroundImageFix"/>
<feColorMatrix in="SourceAlpha" type="matrix" values="0 0 0 0 0 0 0 0 0 0 0 0 0 0 0 0 0 0 127 0"/>
<feOffset dx="4" dy="4"/>
<feGaussianBlur stdDeviation="11"/>
<feColorMatrix type="matrix" values="0 0 0 0 0.945098 0 0 0 0 0.513726 0 0 0 0 0.0117647 0 0 0 1 0"/>
<feBlend mode="normal" in2="BackgroundImageFix" result="effect1_dropShadow"/>
<feBlend mode="normal" in="SourceGraphic" in2="effect1_dropShadow" result="shape"/>
</filter>
</defs>
</svg>
