<svg width="255" height="205" viewBox="0 0 255 205" fill="none" xmlns="http://www.w3.org/2000/svg">
<g filter="url(#filter0_d)">
<path d="M21.6951 113.463C16.9769 110.779 16.9769 103.979 21.6951 101.295L120.039 45.348C122.185 44.1272 124.815 44.1272 126.961 45.348L225.305 101.295C230.023 103.979 230.023 110.779 225.305 113.463L126.961 169.41C124.815 170.631 122.185 170.631 120.039 169.41L21.6951 113.463Z" fill="#303234"/>
<path d="M21.6951 111.607C16.9769 108.923 16.9769 102.123 21.6951 99.4388L120.039 43.4923C122.185 42.2714 124.815 42.2714 126.961 43.4923L225.305 99.4388C230.023 102.123 230.023 108.923 225.305 111.607L126.961 167.554C124.815 168.775 122.185 168.775 120.039 167.554L21.6951 111.607Z" fill="#303234"/>
<path d="M21.6951 109.752C16.9769 107.068 16.9769 100.267 21.6951 97.5831L120.039 41.6365C122.185 40.4157 124.815 40.4157 126.961 41.6365L225.305 97.5831C230.023 100.267 230.023 107.068 225.305 109.752L126.961 165.698C124.815 166.919 122.185 166.919 120.039 165.698L21.6951 109.752Z" fill="#303234"/>
<path d="M21.6951 107.896C16.9769 105.212 16.9769 98.4115 21.6951 95.7273L120.039 39.7808C122.185 38.5599 124.815 38.5599 126.961 39.7808L225.305 95.7273C230.023 98.4114 230.023 105.212 225.305 107.896L126.961 163.843C124.815 165.063 122.185 165.063 120.039 163.843L21.6951 107.896Z" fill="#303234"/>
<path d="M21.6951 106.04C16.9769 103.356 16.9769 96.5557 21.6951 93.8716L120.039 37.9251C122.185 36.7042 124.815 36.7042 126.961 37.9251L225.305 93.8716C230.023 96.5557 230.023 103.356 225.305 106.04L126.961 161.987C124.815 163.208 122.185 163.208 120.039 161.987L21.6951 106.04Z" fill="#303234"/>
<path d="M21.6951 104.185C16.9769 101.5 16.9769 94.7 21.6951 92.0158L120.039 36.0693C122.185 34.8484 124.815 34.8484 126.961 36.0693L225.305 92.0158C230.023 94.7 230.023 101.5 225.305 104.185L126.961 160.131C124.815 161.352 122.185 161.352 120.039 160.131L21.6951 104.185Z" fill="#303234"/>
</g>
<defs>
<filter id="filter0_d" x="0.156464" y="17.1536" width="254.687" height="179.172" filterUnits="userSpaceOnUse" color-interpolation-filters="sRGB">
<feFlood flood-opacity="0" result="BackgroundImageFix"/>
<feColorMatrix in="SourceAlpha" type="matrix" values="0 0 0 0 0 0 0 0 0 0 0 0 0 0 0 0 0 0 127 0"/>
<feOffset dx="4" dy="4"/>
<feGaussianBlur stdDeviation="11"/>
<feColorMatrix type="matrix" values="0 0 0 0 0.866667 0 0 0 0 0.0666667 0 0 0 0 0.333333 0 0 0 1 0"/>
<feBlend mode="normal" in2="BackgroundImageFix" result="effect1_dropShadow"/>
<feBlend mode="normal" in="SourceGraphic" in2="effect1_dropShadow" result="shape"/>
</filter>
</defs>
</svg>
