<svg width="255" height="205" viewBox="0 0 255 205" fill="none" xmlns="http://www.w3.org/2000/svg">
    <g filter="url(#filter0_d)">
        <path d="M21.6951 112.791C16.9769 110.107 16.9769 103.306 21.6951 100.622L120.039 44.6757C122.185 43.4548 124.815 43.4548 126.961 44.6757L225.305 100.622C230.023 103.306 230.023 110.107 225.305 112.791L126.961 168.737C124.815 169.958 122.185 169.958 120.039 168.737L21.6951 112.791Z" fill="#303234"/>
        <path d="M21.6951 110.935C16.9769 108.251 16.9769 101.451 21.6951 98.7665L120.039 42.82C122.185 41.5991 124.815 41.5991 126.961 42.82L225.305 98.7665C230.023 101.451 230.023 108.251 225.305 110.935L126.961 166.882C124.815 168.103 122.185 168.103 120.039 166.882L21.6951 110.935Z" fill="#303234"/>
        <path d="M21.6951 109.079C16.9769 106.395 16.9769 99.5949 21.6951 96.9108L120.039 40.9642C122.185 39.7434 124.815 39.7434 126.961 40.9642L225.305 96.9108C230.023 99.5949 230.023 106.395 225.305 109.079L126.961 165.026C124.815 166.247 122.185 166.247 120.039 165.026L21.6951 109.079Z" fill="#303234"/>
        <path d="M21.6951 107.224C16.9769 104.54 16.9769 97.7392 21.6951 95.055L120.039 39.1085C122.185 37.8876 124.815 37.8876 126.961 39.1085L225.305 95.055C230.023 97.7391 230.023 104.54 225.305 107.224L126.961 163.17C124.815 164.391 122.185 164.391 120.039 163.17L21.6951 107.224Z" fill="#303234"/>
        <path d="M21.6951 105.368C16.9769 102.684 16.9769 95.8834 21.6951 93.1993L120.039 37.2528C122.185 36.0319 124.815 36.0319 126.961 37.2528L225.305 93.1993C230.023 95.8834 230.023 102.684 225.305 105.368L126.961 161.315C124.815 162.535 122.185 162.535 120.039 161.315L21.6951 105.368Z" fill="#303234"/>
        <path d="M21.6951 103.512C16.9769 100.828 16.9769 94.0277 21.6951 91.3435L120.039 35.397C122.185 34.1761 124.815 34.1761 126.961 35.397L225.305 91.3435C230.023 94.0277 230.023 100.828 225.305 103.512L126.961 159.459C124.815 160.68 122.185 160.68 120.039 159.459L21.6951 103.512Z" fill="#303234"/>
    </g>
    <defs>
        <filter id="filter0_d" x="0.156464" y="16.4813" width="254.687" height="179.172" filterUnits="userSpaceOnUse" color-interpolation-filters="sRGB">
            <feFlood flood-opacity="0" result="BackgroundImageFix"/>
            <feColorMatrix in="SourceAlpha" type="matrix" values="0 0 0 0 0 0 0 0 0 0 0 0 0 0 0 0 0 0 127 0"/>
            <feOffset dx="4" dy="4"/>
            <feGaussianBlur stdDeviation="11"/>
            <feColorMatrix type="matrix" values="0 0 0 0 0.282353 0 0 0 0 0.898039 0 0 0 0 0.760784 0 0 0 1 0"/>
            <feBlend mode="normal" in2="BackgroundImageFix" result="effect1_dropShadow"/>
            <feBlend mode="normal" in="SourceGraphic" in2="effect1_dropShadow" result="shape"/>
        </filter>
    </defs>
</svg>
